<svg width="51" height="21" viewBox="0 0 51 21" fill="none" xmlns="http://www.w3.org/2000/svg">
<path d="M12.3774 7.90741L38.8142 7.90741M27.3199 0.87037L50.1169 14.9444M23.6801 0.87037L0.883142 14.9444M11.8027 15.2222H27.1284C27.34 15.2222 27.5115 15.0564 27.5115 14.8519V0.87037C27.5115 0.66582 27.34 0.5 27.1284 0.5H0.883142C0.671538 0.5 0.5 0.66582 0.5 0.87037V20.1296C0.5 20.3342 0.671538 20.5 0.883142 20.5H11.0364C11.248 20.5 11.4195 20.3342 11.4195 20.1296V15.5926C11.4195 15.388 11.5911 15.2222 11.8027 15.2222ZM39.1973 15.2222H23.8716C23.66 15.2222 23.4885 15.0564 23.4885 14.8519V0.87037C23.4885 0.66582 23.66 0.5 23.8716 0.5H50.1169C50.3285 0.5 50.5 0.66582 50.5 0.87037V20.1296C50.5 20.3342 50.3285 20.5 50.1169 20.5H39.9636C39.752 20.5 39.5805 20.3342 39.5805 20.1296V15.5926C39.5805 15.388 39.4089 15.2222 39.1973 15.2222Z" stroke="#DDC5A6"/>
</svg>
